<?xml version="1.0" encoding="UTF-8" standalone="no"?>
<svg
   id="Layer_1"
   viewBox="0 0 869.81002 409.85997"
   width="869.81"
   height="409.85999"
   xmlns="http://www.w3.org/2000/svg">
  <defs
     id="defs1">
    <style
       id="style1">
      .cls-1, .cls-2 {
        fill: #fff;
      }

      .cls-1, .cls-3, .cls-4 {
        fill-rule: evenodd;
      }

      .cls-5 {
        fill: #141837;
      }

      .cls-6, .cls-7 {
        fill: #00a2c6;
      }

      .cls-3 {
        fill: #b0e6eb;
      }

      .cls-4 {
        fill: #39c0ce;
      }

      .cls-7 {
        opacity: .5;
      }
    </style>
  </defs>
  <g
     id="g9"
     transform="translate(-80.4,-80.55)">
    <g
       id="g5">
      <path
         class="cls-2"
         d="m 424.83,331.46 c -9.32,-4.93 -16.57,-11.86 -21.77,-20.79 -5.2,-8.93 -7.8,-19.3 -7.8,-31.11 0,-11.81 2.6,-22.17 7.8,-31.11 5.2,-8.93 12.45,-15.86 21.77,-20.79 9.31,-4.93 19.92,-7.39 31.84,-7.39 15.16,0 28.7,4.17 40.61,12.51 l -12.02,18.19 c -8.99,-6.28 -18.57,-9.42 -28.75,-9.42 -7.37,0 -13.97,1.57 -19.82,4.71 -5.85,3.14 -10.42,7.58 -13.73,13.32 -3.3,5.74 -4.95,12.4 -4.95,19.98 0,7.58 1.65,14.24 4.95,19.98 3.3,5.74 7.88,10.18 13.73,13.32 5.85,3.14 12.45,4.71 19.82,4.71 10.18,0 19.76,-3.14 28.75,-9.42 l 12.02,18.19 c -11.91,8.34 -25.45,12.51 -40.61,12.51 -11.91,0 -22.53,-2.46 -31.84,-7.39 z"
         id="path1" />
      <path
         class="cls-2"
         d="m 539.84,316.76 h 47.43 v 19.66 H 519.04 V 222.71 h 20.79 v 94.05 z"
         id="path2" />
      <path
         class="cls-2"
         d="m 686.59,227.74 c 9.1,4.98 16.24,11.99 21.44,21.04 5.2,9.04 7.8,19.31 7.8,30.78 0,11.47 -2.6,21.74 -7.8,30.78 -5.2,9.04 -12.35,16.06 -21.44,21.04 -9.1,4.98 -19.22,7.47 -30.38,7.47 -11.16,0 -21.25,-2.49 -30.3,-7.47 -9.04,-4.98 -16.16,-11.99 -21.36,-21.04 -5.2,-9.04 -7.8,-19.3 -7.8,-30.78 0,-11.48 2.6,-21.74 7.8,-30.78 5.2,-9.04 12.32,-16.05 21.36,-21.04 9.04,-4.98 19.14,-7.47 30.3,-7.47 11.16,0 21.28,2.49 30.38,7.47 z m -49.3,18.6 c -5.58,3.2 -9.94,7.69 -13.08,13.48 -3.14,5.79 -4.71,12.37 -4.71,19.74 0,7.37 1.57,13.94 4.71,19.74 3.14,5.79 7.5,10.29 13.08,13.48 5.58,3.2 11.88,4.79 18.92,4.79 7.04,0 13.35,-1.6 18.92,-4.79 5.58,-3.19 9.93,-7.66 13.08,-13.4 3.14,-5.74 4.71,-12.34 4.71,-19.82 0,-7.48 -1.57,-14.08 -4.71,-19.82 -3.14,-5.74 -7.5,-10.21 -13.08,-13.4 -5.58,-3.19 -11.89,-4.79 -18.92,-4.79 -7.03,0 -13.35,1.6 -18.92,4.79 z"
         id="path3" />
      <path
         class="cls-2"
         d="m 830.35,291.58 c 0,9.53 -1.84,17.84 -5.52,24.94 -3.68,7.09 -9.04,12.56 -16.08,16.41 -7.04,3.84 -15.43,5.77 -25.18,5.77 -14.84,0 -26.37,-4.22 -34.6,-12.67 -8.23,-8.45 -12.35,-19.93 -12.35,-34.44 v -68.87 h 21.93 v 67.58 c 0,8.23 2.27,14.78 6.82,19.65 4.55,4.87 10.61,7.31 18.19,7.31 7.58,0 13.62,-2.44 18.11,-7.31 4.49,-4.87 6.74,-11.42 6.74,-19.65 v -67.58 h 21.93 v 68.87 z"
         id="path4" />
      <path
         class="cls-2"
         d="m 921.7,229.61 c 8.93,4.6 15.92,11.18 20.96,19.74 5.04,8.56 7.55,18.63 7.55,30.21 0,11.58 -2.52,21.66 -7.55,30.21 -5.04,8.56 -12.02,15.13 -20.96,19.74 -8.93,4.6 -19.14,6.9 -30.62,6.9 H 854.69 V 222.7 h 36.39 c 11.48,0 21.69,2.3 30.62,6.9 z m -46.22,12.26 v 75.37 h 16.57 c 6.93,0 13.08,-1.46 18.44,-4.39 5.36,-2.92 9.58,-7.2 12.67,-12.83 3.09,-5.63 4.63,-12.45 4.63,-20.47 0,-8.02 -1.54,-14.83 -4.63,-20.47 -3.09,-5.63 -7.31,-9.91 -12.67,-12.83 -5.36,-2.92 -11.51,-4.39 -18.44,-4.39 h -16.57 z"
         id="path5" />
    </g>
    <g
       id="g8">
      <path
         class="cls-2"
         d="m 465.55,124.44 c 5.09,5.09 7.63,12.94 7.63,23.55 v 46.3 H 453.2 V 152.7 c 0,-11.59 -5.14,-17.38 -15.43,-17.38 -5.42,0 -9.69,1.79 -12.83,5.36 -3.14,3.57 -4.71,9.21 -4.71,16.89 v 36.71 h -19.82 v -75.05 h 19.66 v 11.37 h 0.32 c 2.6,-4.44 5.98,-7.85 10.15,-10.23 4.17,-2.38 8.96,-3.57 14.38,-3.57 8.66,0 15.54,2.55 20.63,7.63 z"
         id="path6" />
      <path
         class="cls-2"
         d="m 524.84,148.97 h -7.63 v 45.32 H 496.42 V 80.58 h 41.91 c 7.47,0 13.97,1.44 19.49,4.3 5.52,2.87 9.77,6.9 12.75,12.1 2.98,5.2 4.47,11.21 4.47,18.03 0,8.45 -2.36,15.62 -7.07,21.52 -4.71,5.9 -11.24,9.72 -19.57,11.45 l 33.63,46.3 h -26.15 l -31.03,-45.32 z m -7.63,-18.36 h 17.87 c 5.85,0 10.26,-1.33 13.24,-3.98 2.98,-2.65 4.47,-6.42 4.47,-11.29 0,-4.87 -1.49,-8.55 -4.47,-11.37 -2.98,-2.81 -7.39,-4.22 -13.24,-4.22 h -17.87 z"
         id="path7" />
      <path
         class="cls-2"
         d="m 621.7,100.07 v 27.94 h 43.21 v 19.17 H 621.7 v 47.11 H 600.91 V 80.58 h 68.88 v 19.49 h -48.08 z"
         id="path8" />
    </g>
  </g>
  <g
     id="g12"
     transform="translate(-80.4,-80.55)">
    <path
       class="cls-2"
       d="M 167.01,336.47 H 324.2 c 6.69,0 12.12,-5.43 12.12,-12.12 V 92.67 c 0,-6.69 -5.43,-12.12 -12.12,-12.12 H 92.52 c -6.69,0 -12.12,5.43 -12.12,12.12 v 185.87 c 0,5.89 2.83,11.41 7.61,14.85 l 68.32,39.63 c 2.6,1.49 6.85,3.44 10.68,3.44 z"
       id="path9" />
    <g
       id="g11">
      <path
         class="cls-6"
         d="m 288.35,217.67 c 0,11.84 -6.43,22.17 -15.99,27.71 l -40.77,-23.54 -7.23,-4.17 v 0 c 0,0 -32.09,-18.54 -32.09,-18.54 l -0.14,-0.07 -9.32,-5.39 c -0.14,-0.08 -0.28,-0.16 -0.43,-0.24 -7.88,-4.41 -11.21,-5.86 -13.08,-6.49 v 0 c -0.06,-0.02 -0.12,-0.04 -0.18,-0.05 0,-0.36 0.03,-0.73 0.05,-1.09 1.38,-20.93 18.79,-37.47 40.07,-37.47 21.28,0 39.05,16.89 40.1,38.12 2.26,-0.51 4.6,-0.77 7.01,-0.77 17.68,0 32,14.32 32,31.99 z"
         id="path10" />
      <path
         class="cls-7"
         d="m 272.36,245.38 c -4.49,2.59 -9.66,4.13 -15.19,4.27 h -96.81 c -17.67,0 -31.99,-14.32 -31.99,-31.98 0,-17.66 14.33,-31.99 31.99,-31.99 3.03,0 5.97,0.43 8.74,1.22 0.05,0.02 0.12,0.04 0.18,0.05 v 0 c 1.87,0.63 5.2,2.08 13.08,6.49 0.14,0.08 0.28,0.16 0.43,0.24 l 9.32,5.39 0.14,0.07 32.09,18.53 v 0 c 0,0 7.23,4.18 7.23,4.18 l 40.77,23.54 z"
         id="path11" />
    </g>
  </g>
  <g
     id="g31"
     transform="translate(-80.4,-80.55)">
    <g
       id="Layer_2">
      <circle
         class="cls-5"
         cx="534.12"
         cy="443.89999"
         r="46.509998"
         id="circle12" />
      <path
         class="cls-4"
         d="m 562.9,450.49 -4.25,-2.45 -20.32,11.72 c -2.61,1.49 -5.82,1.49 -8.43,0 l -20.32,-11.72 -4.25,2.45 c -1.19,0.68 -1.6,2.2 -0.92,3.39 0.22,0.38 0.54,0.7 0.92,0.92 l 24.56,14.17 c 2.61,1.49 5.82,1.49 8.43,0 l 24.56,-14.17 c 1.19,-0.68 1.6,-2.2 0.92,-3.39 -0.22,-0.38 -0.54,-0.7 -0.92,-0.92 z"
         id="path12" />
      <path
         class="cls-4"
         d="m 562.9,432.01 -24.56,-14.2 c -2.61,-1.49 -5.82,-1.49 -8.43,0 l -24.56,14.17 c -1.19,0.68 -1.6,2.2 -0.92,3.39 0.22,0.38 0.54,0.7 0.92,0.92 l 4.25,2.45 8.02,4.62 12.3,7.1 c 2.61,1.49 5.82,1.49 8.43,0 l 12.3,-7.1 8.02,-4.62 v 0 l 4.25,-2.45 c 1.18,-0.67 1.6,-2.17 0.93,-3.35 -0.22,-0.39 -0.54,-0.71 -0.93,-0.93 z"
         id="path13" />
      <path
         class="cls-1"
         d="m 808.54,424.77 v 0 c 0.91,0.01 1.82,0.09 2.72,0.24 v -8.77 c -1.72,-0.25 -3.46,-0.37 -5.2,-0.37 v 0 c -8.59,0 -15.56,6.96 -15.56,15.55 v 0 1.37 h -5.81 v 8.56 h 5.81 v 28.61 h 11.42 v -28.61 h 9.34 v -8.56 h -9.34 v -1.39 c 0,-3.65 2.95,-6.62 6.6,-6.63 0,0 0.02,0 0.03,0 z"
         id="path14" />
      <path
         class="cls-1"
         d="m 944.95,441.35 v -8.56 h -9.34 v -10.91 h -11.42 v 10.91 h -5.81 v 8.56 h 5.81 v 13.62 c 0,8.59 6.96,15.56 15.55,15.56 v 0 c 1.74,0 3.48,-0.13 5.2,-0.37 v -8.77 c -0.9,0.16 -1.81,0.24 -2.72,0.24 v 0 c -3.65,0 -6.62,-2.95 -6.63,-6.6 v -13.69 h 9.34 z"
         id="path15" />
      <rect
         class="cls-2"
         x="900.44"
         y="416.62"
         width="11.42"
         height="53.34"
         id="rect15" />
      <path
         class="cls-1"
         d="m 880.77,432.79 v 22.73 c -0.56,3.62 -3.68,6.29 -7.34,6.29 -3.23,0 -5.84,-2.62 -5.84,-5.84 V 432.8 h -11.31 v 24.7 c 0,7.2 5.84,13.04 13.05,13.05 v 0 c 4.27,0 8.38,-1.65 11.48,-4.59 v 4.01 h 11.48 V 432.8 h -11.52 z"
         id="path16" />
      <path
         class="cls-1"
         d="m 765.69,432.35 v 0 c -5.07,0.02 -9.82,2.47 -12.77,6.59 -2.16,-4.02 -6.34,-6.55 -10.91,-6.59 v 0 c -4.28,0.01 -8.36,1.77 -11.31,4.86 v -4.28 h -11.48 v 37.13 h 11.69 v -21.57 c 0,-4.11 3.19,-7.44 7.17,-7.44 3.09,0 5.61,2.62 5.61,5.84 v 23.17 h 10.91 v -21.68 c 0.07,-4.04 3.26,-7.3 7.17,-7.3 3.09,0 5.61,2.62 5.61,5.84 v 23.17 h 10.91 v -24.7 c -0.03,-7.2 -5.64,-13.05 -12.57,-13.05 z"
         id="path17" />
      <path
         class="cls-1"
         d="m 712.32,449.51 c 0,-9.74 -7.9,-17.63 -17.63,-17.63 v 0 c -9.74,0 -17.63,7.9 -17.63,17.63 v 3.4 c 0,9.72 7.92,17.63 18.11,17.63 5.64,0 11.62,-1.19 16.51,-4.52 l -3.06,-7.58 -0.75,0.44 c -3.37,2.07 -7.25,3.17 -11.21,3.16 v 0 c -4.74,0 -8.59,-3.83 -8.6,-8.58 v -0.02 h 24.19 v -3.94 h 0.07 z m -10.47,-1.94 h -13.83 v -0.75 c 0,-3.81 3.09,-6.9 6.9,-6.9 v 0 c 3.81,0 6.9,3.09 6.9,6.9 v 0.75 z"
         id="path18" />
      <path
         class="cls-1"
         d="m 848.83,447.74 v -0.1 c -0.39,-8.42 -7.33,-15.05 -15.76,-15.05 h -0.51 c -5.29,0 -10.52,1.21 -15.25,3.57 l 1.8,7.27 c 3.4,-1.6 7.17,-2.99 11.86,-2.99 4.69,0 6.96,2.85 6.96,6.12 v 1.29 h -11.79 c -6.35,0 -11.69,5.2 -11.55,11.55 0.13,6.18 5.17,11.11 11.35,11.11 3.93,0 7.7,-1.52 10.53,-4.25 l 1.49,-1.43 v 5.06 h 10.91 l -0.03,-22.15 v 0 z m -10.87,7.1 c 0,4.32 -3.5,7.81 -7.81,7.81 -2.57,0 -4.66,-2.08 -4.66,-4.65 0,-2.57 2.08,-4.66 4.65,-4.66 h 7.82 v 1.49 z"
         id="path19" />
      <polygon
         class="cls-2"
         points="646.85,462.31 638.49,462.31 627.31,441.79 627.31,470.09 615.59,470.09 615.59,416.75 625.99,416.75 642.74,448.25 659.49,416.75 669.75,416.75 669.75,470.09 658.03,470.09 658.03,441.52 "
         id="polygon19" />
      <path
         class="cls-3"
         d="m 538.33,427.05 c -2.61,-1.49 -5.82,-1.49 -8.43,0 l -20.32,11.72 8.02,4.62 12.3,7.1 c 2.61,1.49 5.82,1.49 8.43,0 l 12.3,-7.1 8.02,-4.62 z"
         id="path20" />
      <path
         class="cls-1"
         d="m 529.91,436.32 -12.3,7.1 12.3,7.1 c 2.61,1.49 5.82,1.49 8.43,0 l 12.3,-7.1 -12.3,-7.1 c -2.6,-1.53 -5.83,-1.53 -8.43,0 z"
         id="path21" />
    </g>
    <g
       id="g30">
      <path
         class="cls-2"
         d="m 80.5,435.58 h 6.37 V 440 H 87 c 1,-1.69 2.34,-3.01 4.03,-3.96 1.69,-0.95 3.73,-1.43 6.11,-1.43 2.69,0 5.13,0.65 7.34,1.95 2.21,1.3 3.98,3.15 5.3,5.56 1.32,2.4 1.98,5.23 1.98,8.48 0,3.25 -0.66,6.08 -1.98,8.48 -1.32,2.4 -3.09,4.26 -5.3,5.56 -2.21,1.3 -4.66,1.95 -7.34,1.95 -2.38,0 -4.42,-0.48 -6.11,-1.43 C 89.34,464.21 88,462.88 87,461.2 h -0.13 v 17.42 H 80.5 v -43.03 z m 21.97,22.06 c 1.69,-1.8 2.54,-4.15 2.54,-7.05 0,-2.9 -0.85,-5.25 -2.54,-7.05 -1.69,-1.8 -3.92,-2.7 -6.7,-2.7 -2.78,0 -5,0.9 -6.69,2.7 -1.69,1.8 -2.54,4.15 -2.54,7.05 0,2.9 0.84,5.25 2.54,7.05 1.69,1.8 3.92,2.7 6.69,2.7 2.77,0 5,-0.9 6.7,-2.7 z"
         id="path22" />
      <path
         class="cls-2"
         d="m 142.16,436.68 c 2.49,1.39 4.45,3.29 5.88,5.72 1.43,2.43 2.14,5.16 2.14,8.19 0,3.03 -0.71,5.76 -2.14,8.19 -1.43,2.43 -3.39,4.33 -5.88,5.72 -2.49,1.39 -5.3,2.08 -8.42,2.08 -3.12,0 -5.93,-0.69 -8.42,-2.08 -2.49,-1.39 -4.45,-3.29 -5.88,-5.72 -1.43,-2.43 -2.14,-5.16 -2.14,-8.19 0,-3.03 0.71,-5.76 2.14,-8.19 1.43,-2.43 3.39,-4.33 5.88,-5.72 2.49,-1.39 5.3,-2.08 8.42,-2.08 3.12,0 5.93,0.69 8.42,2.08 z m -15.41,6.83 c -1.8,1.78 -2.7,4.14 -2.7,7.08 0,2.94 0.9,5.31 2.7,7.08 1.8,1.78 4.13,2.67 6.99,2.67 2.86,0 5.19,-0.89 6.99,-2.67 1.8,-1.78 2.7,-4.14 2.7,-7.08 0,-2.94 -0.9,-5.31 -2.7,-7.08 -1.8,-1.78 -4.13,-2.67 -6.99,-2.67 -2.86,0 -5.19,0.89 -6.99,2.67 z"
         id="path23" />
      <path
         class="cls-2"
         d="m 200.3,435.58 -10.08,30.03 h -5.85 l -7.15,-21.51 -7.21,21.51 h -5.85 l -10.08,-30.03 h 7.02 l 6.04,21.65 6.96,-21.65 h 6.17 l 6.96,21.65 6.04,-21.65 h 7.02 z"
         id="path24" />
      <path
         class="cls-2"
         d="m 230.1,438.92 c 2.54,2.88 3.8,6.77 3.8,11.67 v 1.04 h -23.27 c 0.13,2.64 1.03,4.78 2.7,6.4 1.67,1.62 3.8,2.44 6.4,2.44 2.17,0 3.97,-0.51 5.43,-1.53 1.45,-1.02 2.72,-2.26 3.8,-3.74 l 4.49,4.23 c -3.47,4.77 -8,7.15 -13.58,7.15 -3.16,0 -5.93,-0.66 -8.29,-1.98 -2.36,-1.32 -4.18,-3.18 -5.46,-5.59 -1.28,-2.41 -1.92,-5.19 -1.92,-8.35 0,-3.16 0.62,-5.77 1.85,-8.22 1.23,-2.45 3.01,-4.37 5.33,-5.75 2.32,-1.39 5.04,-2.08 8.16,-2.08 4.51,0 8.03,1.44 10.56,4.32 z m -16.41,3.22 c -1.43,1.13 -2.34,2.75 -2.73,4.88 h 16.05 c -0.13,-2.08 -0.9,-3.69 -2.31,-4.84 -1.41,-1.15 -3.26,-1.72 -5.56,-1.72 -2.3,0 -4.03,0.56 -5.46,1.69 z"
         id="path25" />
      <path
         class="cls-2"
         d="m 258.28,442.14 h -0.97 c -3.16,0 -5.55,0.81 -7.15,2.44 -1.6,1.62 -2.41,4.19 -2.41,7.7 v 13.33 h -6.37 v -30.03 h 6.37 v 6.57 h 0.13 c 0.74,-2.3 1.96,-4.12 3.67,-5.46 1.71,-1.34 3.8,-2.02 6.27,-2.02 h 0.46 v 7.48 z"
         id="path26" />
      <path
         class="cls-2"
         d="m 288.4,438.92 c 2.54,2.88 3.8,6.77 3.8,11.67 v 1.04 h -23.27 c 0.13,2.64 1.03,4.78 2.7,6.4 1.67,1.62 3.8,2.44 6.4,2.44 2.17,0 3.97,-0.51 5.43,-1.53 1.45,-1.02 2.72,-2.26 3.8,-3.74 l 4.49,4.23 c -3.47,4.77 -8,7.15 -13.58,7.15 -3.16,0 -5.93,-0.66 -8.29,-1.98 -2.36,-1.32 -4.18,-3.18 -5.46,-5.59 -1.28,-2.41 -1.92,-5.19 -1.92,-8.35 0,-3.16 0.62,-5.77 1.85,-8.22 1.23,-2.45 3.01,-4.37 5.33,-5.75 2.32,-1.39 5.04,-2.08 8.16,-2.08 4.51,0 8.03,1.44 10.56,4.32 z m -16.41,3.22 c -1.43,1.13 -2.34,2.75 -2.73,4.88 h 16.05 c -0.13,-2.08 -0.9,-3.69 -2.31,-4.84 -1.41,-1.15 -3.26,-1.72 -5.56,-1.72 -2.3,0 -4.03,0.56 -5.46,1.69 z"
         id="path27" />
      <path
         class="cls-2"
         d="m 305.01,464.63 c -2.21,-1.3 -3.98,-3.15 -5.3,-5.56 -1.32,-2.41 -1.98,-5.23 -1.98,-8.48 0,-3.25 0.66,-6.08 1.98,-8.48 1.32,-2.41 3.09,-4.26 5.3,-5.56 2.21,-1.3 4.66,-1.95 7.34,-1.95 2.38,0 4.42,0.48 6.11,1.43 1.69,0.95 3.03,2.28 4.03,3.96 h 0.13 V 420.1 h 6.37 v 45.5 h -6.37 v -4.42 h -0.13 c -1,1.69 -2.34,3.01 -4.03,3.96 -1.69,0.95 -3.73,1.43 -6.11,1.43 -2.69,0 -5.13,-0.65 -7.34,-1.95 z m 15.41,-6.99 c 1.69,-1.8 2.54,-4.15 2.54,-7.05 0,-2.9 -0.84,-5.25 -2.54,-7.05 -1.69,-1.8 -3.92,-2.7 -6.69,-2.7 -2.77,0 -5.01,0.9 -6.7,2.7 -1.69,1.8 -2.54,4.15 -2.54,7.05 0,2.9 0.84,5.25 2.54,7.05 1.69,1.8 3.92,2.7 6.7,2.7 2.78,0 5,-0.9 6.69,-2.7 z"
         id="path28" />
      <path
         class="cls-2"
         d="m 370.08,465.15 c -1.69,-0.95 -3.03,-2.28 -4.03,-3.96 h -0.13 v 4.42 h -6.37 v -45.5 h 6.37 V 440 h 0.13 c 1,-1.69 2.34,-3.01 4.03,-3.96 1.69,-0.95 3.73,-1.43 6.11,-1.43 2.69,0 5.13,0.65 7.34,1.95 2.21,1.3 3.98,3.15 5.3,5.56 1.32,2.4 1.98,5.23 1.98,8.48 0,3.25 -0.66,6.08 -1.98,8.48 -1.32,2.4 -3.09,4.26 -5.3,5.56 -2.21,1.3 -4.66,1.95 -7.34,1.95 -2.38,0 -4.42,-0.48 -6.11,-1.43 z m 11.44,-7.51 c 1.69,-1.8 2.54,-4.15 2.54,-7.05 0,-2.9 -0.85,-5.25 -2.54,-7.05 -1.69,-1.8 -3.92,-2.7 -6.7,-2.7 -2.78,0 -5,0.9 -6.7,2.7 -1.69,1.8 -2.54,4.15 -2.54,7.05 0,2.9 0.85,5.25 2.54,7.05 1.69,1.8 3.92,2.7 6.7,2.7 2.78,0 5,-0.9 6.7,-2.7 z"
         id="path29" />
      <path
         class="cls-2"
         d="m 425.58,435.58 -18.72,43.03 h -6.76 l 7.21,-15.73 -12.61,-27.3 h 7.6 l 8.25,19.7 8,-19.7 h 7.02 z"
         id="path30" />
    </g>
  </g>
</svg>
