<?xml version="1.0" encoding="UTF-8" standalone="no"?>
<svg
   id="Layer_1"
   data-name="Layer 1"
   viewBox="0 0 1920 3240"
   version="1.1"
   xmlns="http://www.w3.org/2000/svg"
   xmlns:svg="http://www.w3.org/2000/svg">
  <defs
     id="defs2">
    <style
       id="style1">
      .cls-1, .cls-2, .cls-3, .cls-4, .cls-5, .cls-6, .cls-7 {
        fill: none;
      }

      .cls-9 {
        fill: #1946a9;
      }

      .cls-10 {
        clip-path: url(#clippath-1);
      }

      .cls-2 {
        stroke-width: 2.78px;
      }

      .cls-2, .cls-3, .cls-4, .cls-5, .cls-6 {
        stroke: #d9e1e2;
      }

      .cls-2, .cls-3, .cls-4, .cls-5, .cls-6, .cls-7 {
        stroke-miterlimit: 10;
      }

      .cls-3 {
        stroke-width: 2.6px;
      }

      .cls-4 {
        stroke-width: 2.51px;
      }

      .cls-5 {
        stroke-width: 2.89px;
      }

      .cls-11 {
        fill: #d9e1e2;
      }

      .cls-12, .cls-13 {
        opacity: .5;
      }

      .cls-12, .cls-14 {
        fill: #335bb3;
      }

      .cls-15 {
        fill: #4c6fbc;
      }

      .cls-16 {
        opacity: .18;
      }

      .cls-17 {
        opacity: .1;
      }

      .cls-6 {
        stroke-width: 2.32px;
      }

      .cls-18 {
        fill: #1984cd;
      }

      .cls-19 {
        fill: #6684c6;
      }

      .cls-7 {
        stroke: #0071bc;
      }

      .cls-7 {
        stroke-width: .31px;
      }

      .cls-20 {
        clip-path: url(#clippath);
      }
    </style>
    <clipPath
       id="clippath">
      <rect
         class="cls-1"
         x="-2.83"
         width="1922.83"
         height="3240"
         id="rect1" />
    </clipPath>
    <clipPath
       id="clippath-1">
      <rect
         class="cls-1"
         x="-2150.61"
         width="1922.83"
         height="3240"
         id="rect2" />
    </clipPath>
  </defs>
  <g
     class="cls-20"
     clip-path="url(#clippath)"
     id="g57">
    <g
       id="g56">
      <g
         class="cls-17"
         id="g5">
        <g
           id="g4">
          <path
             class="cls-4"
             d="M236.71,1165.25h953.44c169.93,0,307.68,137.76,307.68,307.68v397.26c0,180.62,148.63,329.25,329.25,329.25,180.62,0,329.25-148.63,329.25-329.25,0-180.62-148.63-329.25-329.25-329.25-142.1,0-257.3-115.2-257.3-257.3v-320.11"
             id="path2" />
          <path
             class="cls-11"
             d="M237.18,1174.68c-5.21,0-9.43-4.22-9.43-9.43s4.22-9.43,9.43-9.43,9.43,4.22,9.43,9.43-4.22,9.43-9.43,9.43Z"
             id="path3" />
          <path
             class="cls-11"
             d="M1579.22,964.01c0-5.21-4.22-9.43-9.43-9.43s-9.43,4.22-9.43,9.43,4.22,9.43,9.43,9.43,9.43-4.22,9.43-9.43Z"
             id="path4" />
        </g>
      </g>
      <g
         class="cls-16"
         id="g8">
        <g
           id="g7">
          <path
             class="cls-4"
             d="M1213.6,2133.18c4.79,136.9,118.85,248.02,256.83,248.02,140.98,0,256.98-116.01,256.98-256.98,0-140.98-116.01-256.98-256.98-256.98h-402.61"
             id="path5" />
          <path
             class="cls-11"
             d="M1204.26,2133.89c-.13-5.21,3.98-9.54,9.19-9.67,5.21-.13,9.54,3.98,9.67,9.19.13,5.21-3.98,9.54-9.19,9.67s-9.54-3.98-9.67-9.19Z"
             id="path6" />
          <path
             class="cls-11"
             d="M1068.29,1857.8c-5.21,0-9.43,4.22-9.43,9.43s4.22,9.43,9.43,9.43,9.43-4.22,9.43-9.43-4.22-9.43-9.43-9.43Z"
             id="path7" />
        </g>
      </g>
      <path
         class="cls-1"
         d="M168.94,1508.28c0,10.72-.81,21.24-2.36,31.53-15.07,99.42-100.28,175.81-203.59,177.11-.9.01-1.79.02-2.7.02-115.24,0-208.66-93.42-208.66-208.66s93.4-208.63,208.63-208.65h.03c17.62,0,34.74,2.18,51.08,6.3,18.33,4.61,35.69,11.64,51.72,20.75l.04.03.09.05,3.1,1.79h.01c61.41,36.33,102.6,103.22,102.6,179.74Z"
         id="path8" />
      <g
         id="Diagoanl_30__pink_RGB"
         data-name="Diagoanl 30°_pink_RGB"
         class="cls-13">
        <path
           class="cls-7"
           d="M201.66,1522.01c0,11.73-.89,23.24-2.59,34.49-16.48,108.77-109.72,192.35-222.74,193.77h-2.98v-491.92l55.88,32.26c-.02,1.36-.03,2.72-.03,4.09,0,1.98.02,3.95.07,5.91,20.05,5.04,39.04,12.74,56.59,22.7l.05.03.1.05,3.39,1.96h.01c67.19,39.74,112.25,112.93,112.25,196.65Z"
           id="path9" />
        <path
           class="cls-7"
           d="M661.49,1750.27c40.4-.54,78.26-11.59,110.98-30.53"
           id="path10" />
      </g>
      <g
         id="g22">
        <g
           class="cls-16"
           id="g14">
          <g
             id="g13">
            <path
               class="cls-3"
               d="M627.8,1840.38c-160.17-4.97-290.39-138.23-290.39-299.52,0-164.39,135.27-299.66,299.66-299.66,164.39,0,299.66,135.27,299.66,299.66v874.17c0,301.35,244.29,545.64,545.64,545.64h664.69"
               id="path12" />
            <path
               class="cls-11"
               d="M627.56,1830.52c5.39.14,9.65,4.62,9.51,10.01-.14,5.39-4.62,9.65-10.01,9.51-5.39-.14-9.65-4.62-9.51-10.01.14-5.39,4.62-9.65,10.01-9.51Z"
               id="path13" />
          </g>
        </g>
        <g
           class="cls-16"
           id="g15">
          <path
             class="cls-3"
             d="M273.83,1618.22c177.43,0,323.44-146.01,323.44-323.44,0-177.43-146.01-323.44-323.44-323.44S-49.6,1117.35-49.61,1294.78v618.88"
             id="path14" />
        </g>
        <g
           class="cls-13"
           id="g21">
          <path
             class="cls-12"
             d="M867.54,1532.2c0,87.87-47.74,164.6-118.7,205.65l-322.3-186.07c85.38-51.03,143.08-143.59,145.24-249.78,18.66-4.72,38.2-7.22,58.33-7.22,131.13,0,237.43,106.29,237.43,237.42Z"
             id="path15" />
          <path
             class="cls-12"
             d="M748.84,1737.85c-34.03,19.7-73.41,31.19-115.43,31.75H-79.18c117.55-1.47,214.52-88.39,231.66-201.52,37.06,16.55,78.12,25.75,121.34,25.75s84.43-9.23,121.54-25.83c10.74-4.8,21.15-10.22,31.17-16.22l322.3,186.07Z"
             id="path16" />
          <path
             class="cls-12"
             d="M571.78,1302.01c-2.16,106.19-59.86,198.74-145.24,249.78l-33.86-19.55v-.03c0-111,76.17-204.21,179.09-230.2Z"
             id="path17" />
          <path
             class="cls-18"
             d="M571.86,1295.82c0,2.07-.02,4.13-.07,6.19-102.92,25.99-179.09,119.2-179.09,230.2v.03l-354.26-204.54h-.01s-3.53-2.04-3.53-2.04l-.1-.06-.05-.03c-18.25-10.36-38-18.36-58.86-23.61-.05-2.04-.07-4.09-.07-6.14,0-1.42,0-2.84.03-4.25,2.28-162.63,134.82-293.77,297.99-293.77s298.03,133.43,298.03,298.03Z"
             id="path18" />
          <path
             class="cls-15"
             d="M571.86,1295.82c0,2.07-.02,4.13-.07,6.19-102.92,25.99-179.09,119.2-179.09,230.2v.03l-354.26-204.54h-.01s-3.53-2.04-3.53-2.04l-.1-.06-.05-.03c-18.25-10.36-38-18.36-58.86-23.61-.05-2.04-.07-4.09-.07-6.14,0-1.42,0-2.84.03-4.25,2.28-162.63,134.82-293.77,297.99-293.77s298.03,133.43,298.03,298.03Z"
             id="path19" />
          <path
             class="cls-12"
             d="M426.55,1551.78c-10.03,6-20.43,11.43-31.17,16.22-37.12,16.61-78.25,25.83-121.54,25.83s-84.28-9.2-121.34-25.75c1.77-11.7,2.69-23.68,2.69-35.88,0-87.07-46.87-163.19-116.75-204.51l354.26,204.54,33.86,19.55Z"
             id="path20" />
          <path
             class="cls-12"
             d="M155.18,1532.21c0,12.2-.92,24.17-2.69,35.88-102.35-45.67-174.21-147.38-176.6-266.13,20.85,5.25,40.61,13.25,58.86,23.61l.05.03.1.06,3.53,2.03h.01c69.88,41.34,116.75,117.45,116.75,204.52Z"
             id="path21" />
        </g>
      </g>
      <g
         id="g32">
        <g
           class="cls-16"
           id="g24">
          <g
             id="g23">
            <path
               class="cls-6"
               d="M553.06,834.16c-143.24-4.45-259.69-123.62-259.69-267.86s120.97-267.98,267.98-267.98,267.98,120.97,267.98,267.98v154.37c0,217.48,176.31,393.79,393.79,393.79h710.05"
               id="path22" />
            <path
               class="cls-11"
               d="M552.85,825.34c4.82.12,8.63,4.13,8.5,8.95s-4.13,8.63-8.95,8.5c-4.82-.12-8.63-4.13-8.5-8.95s4.13-8.63,8.95-8.5Z"
               id="path23" />
          </g>
        </g>
        <g
           class="cls-16"
           id="g25">
          <path
             class="cls-6"
             d="M236.51,635.48c158.68,0,289.25-130.57,289.25-289.24S395.19,56.99,236.51,56.99c-158.68,0-289.25,130.57-289.25,289.24v553.45"
             id="path24" />
        </g>
        <g
           class="cls-13"
           id="g31">
          <path
             class="cls-9"
             d="M767.45,558.56c0,78.58-42.69,147.2-106.15,183.91l-288.22-166.4c76.35-45.64,127.96-128.41,129.88-223.37,16.69-4.22,34.16-6.46,52.16-6.46,117.27,0,212.33,95.06,212.33,212.32Z"
             id="path25" />
          <path
             class="cls-12"
             d="M661.31,742.47c-30.44,17.61-65.65,27.89-103.23,28.39H-79.18c105.13-1.31,191.84-79.05,207.17-180.21,33.14,14.8,69.87,23.03,108.52,23.03s75.5-8.25,108.69-23.1c9.61-4.29,18.91-9.14,27.88-14.51l288.22,166.4Z"
             id="path26" />
          <path
             class="cls-14"
             d="M502.97,352.7c-1.93,94.96-53.53,177.73-129.88,223.37l-30.28-17.48v-.03c0-99.27,68.12-182.62,160.16-205.86Z"
             id="path27" />
          <path
             class="cls-18"
             d="M503.03,347.16c0,1.85-.02,3.7-.06,5.53-92.04,23.24-160.16,106.59-160.16,205.86v.03L25.99,375.67h-.01s-3.15-1.83-3.15-1.83l-.09-.05-.04-.03c-16.32-9.27-33.98-16.42-52.63-21.11-.04-1.83-.06-3.66-.06-5.5,0-1.27,0-2.54.03-3.8C-27.94,197.92,90.59,80.64,236.51,80.64s266.52,119.33,266.52,266.52Z"
             id="path28" />
          <path
             class="cls-15"
             d="M503.03,347.16c0,1.85-.02,3.7-.06,5.53-92.04,23.24-160.16,106.59-160.16,205.86v.03L25.99,375.67h-.01s-3.15-1.83-3.15-1.83l-.09-.05-.04-.03c-16.32-9.27-33.98-16.42-52.63-21.11-.04-1.83-.06-3.66-.06-5.5,0-1.27,0-2.54.03-3.8C-27.94,197.92,90.59,80.64,236.51,80.64s266.52,119.33,266.52,266.52Z"
             id="path29" />
          <path
             class="cls-14"
             d="M373.08,576.07c-8.97,5.37-18.27,10.22-27.88,14.51-33.19,14.85-69.98,23.1-108.69,23.1s-75.37-8.23-108.52-23.03c1.58-10.47,2.41-21.18,2.41-32.08,0-77.86-41.91-145.93-104.41-182.89l316.81,182.91,30.28,17.48Z"
             id="path30" />
          <path
             class="cls-14"
             d="M130.4,558.57c0,10.91-.82,21.62-2.41,32.08C36.46,549.8-27.8,458.85-29.94,352.66c18.65,4.69,36.31,11.85,52.63,21.11l.04.03.09.05,3.15,1.82h.01c62.49,36.97,104.41,105.04,104.41,182.9Z"
             id="path31" />
        </g>
      </g>
      <g
         id="g39">
        <g
           class="cls-16"
           id="g34">
          <g
             id="g33">
            <path
               class="cls-2"
               d="M380.15,2798.54c-156.18,0-284.7,128.52-284.7,284.7,0,156.18,128.52,284.7,284.7,284.7,156.18,0,284.7-128.52,284.7-284.7v-816.97"
               id="path32" />
            <path
               class="cls-11"
               d="M675.3,2266.8c0-5.77-4.68-10.45-10.45-10.45s-10.45,4.68-10.45,10.45,4.68,10.45,10.45,10.45,10.45-4.68,10.45-10.45Z"
               id="path33" />
          </g>
        </g>
        <g
           class="cls-13"
           id="g38">
          <path
             class="cls-14"
             d="M627.19,3083.21c0,94.08-51.11,176.22-127.08,220.17l-345.06-199.21c91.4-54.64,153.19-153.73,155.49-267.41,19.98-5.05,40.9-7.73,62.45-7.73,140.39,0,254.19,113.8,254.19,254.19Z"
             id="path34" />
          <path
             class="cls-15"
             d="M500.12,3303.38c-36.44,21.09-78.6,33.39-123.58,33.99h-7.07l-755.84.02c125.86-1.59,229.67-94.65,248.02-215.76,39.68,17.72,83.64,27.57,129.91,27.57s90.39-9.88,130.13-27.66c11.5-5.13,22.64-10.94,33.37-17.37l345.06,199.21Z"
             id="path35" />
          <path
             class="cls-14"
             d="M310.55,2836.76c-2.31,113.68-64.09,212.77-155.49,267.41l-36.25-20.93v-.03c0-118.84,81.55-218.63,191.74-246.45Z"
             id="path36" />
          <path
             class="cls-9"
             d="M310.63,2830.13c0,2.22-.02,4.42-.08,6.62-110.19,27.83-191.74,127.61-191.74,246.45v.03l-379.28-218.98h-.02s-3.77-2.19-3.77-2.19l-.11-.06-.05-.03c-19.54-11.09-40.69-19.66-63.01-25.28-.05-2.19-.08-4.38-.08-6.58,0-1.52,0-3.04.03-4.55,2.44-174.11,144.34-314.52,319.03-314.52s319.07,142.86,319.07,319.07Z"
             id="path37" />
          <path
             class="cls-15"
             d="M155.06,3104.17c-10.73,6.43-21.87,12.23-33.37,17.37-39.74,17.78-83.78,27.66-130.13,27.66s-90.24-9.85-129.91-27.57c1.89-12.53,2.88-25.35,2.88-38.41,0-93.21-50.18-174.71-124.99-218.96l379.28,218.98,36.25,20.93Z"
             id="path38" />
        </g>
      </g>
      <g
         class="cls-13"
         id="g43">
        <path
           class="cls-14"
           d="M1242.45,2124.19c0,84.92,46.13,159.07,114.71,198.74l311.46-179.82c-82.51-49.32-138.27-138.76-140.35-241.38-18.03-4.56-36.92-6.98-56.37-6.98-126.72,0-229.45,102.72-229.45,229.44Z"
           id="path39" />
        <path
           class="cls-9"
           d="M1357.16,2322.93c32.89,19.03,70.95,30.14,111.55,30.68h6.38s682.26.01,682.26.01c-113.6-1.43-207.31-85.44-223.87-194.76-35.81,15.99-75.5,24.88-117.26,24.88-41.84,0-81.59-8.92-117.46-24.97-10.38-4.63-20.43-9.88-30.12-15.68l-311.46,179.82Z"
           id="path40" />
        <path
           class="cls-19"
           d="M1528.27,1901.73c2.08,102.62,57.85,192.06,140.35,241.38l32.72-18.89v-.03c0-107.27-73.61-197.34-173.07-222.46Z"
           id="path41" />
        <path
           class="cls-14"
           d="M1528.2,1895.75c0,2,.02,3.99.07,5.98,99.46,25.12,173.07,115.19,173.07,222.46v.03s342.35-197.66,342.35-197.66h.01s3.41-1.97,3.41-1.97l.1-.06.05-.03c17.63-10.01,36.72-17.75,56.88-22.81.05-1.97.07-3.95.07-5.94,0-1.37,0-2.74-.03-4.11-2.2-157.16-130.29-283.9-287.97-283.9-159.06,0-288.01,128.95-288.01,288.01Z"
           id="path42" />
        <path
           class="cls-9"
           d="M1668.62,2143.11c9.69,5.8,19.75,11.04,30.12,15.68,35.87,16.05,75.62,24.97,117.46,24.97,41.77,0,81.45-8.89,117.26-24.88-1.71-11.31-2.6-22.88-2.6-34.67,0-84.14,45.29-157.7,112.82-197.64l-342.35,197.66-32.72,18.89Z"
           id="path43" />
      </g>
      <g
         class="cls-16"
         id="g47">
        <g
           id="g46">
          <path
             class="cls-5"
             d="M1111.88,673.68c5.52,157.85,137.04,285.99,296.14,285.99,162.56,0,296.32-133.76,296.32-296.32s-133.76-296.32-296.32-296.32h-464.24"
             id="path44" />
          <path
             class="cls-11"
             d="M1101.1,674.5c-.15-6,4.59-11,10.59-11.15,6-.15,11,4.59,11.15,10.59.15,6-4.59,11-10.59,11.15-6,.15-11-4.59-11.15-10.59Z"
             id="path45" />
          <path
             class="cls-11"
             d="M944.32,356.15c-6.01,0-10.88,4.87-10.88,10.88s4.87,10.88,10.88,10.88,10.88-4.87,10.88-10.88-4.87-10.88-10.88-10.88Z"
             id="path46" />
        </g>
      </g>
      <g
         class="cls-13"
         id="g51">
        <path
           class="cls-14"
           d="M1141.15,663.32c0,97.92,53.19,183.42,132.27,229.16l359.14-207.35c-95.14-56.87-159.44-160-161.84-278.33-20.8-5.26-42.57-8.05-65-8.05-146.12,0-264.57,118.44-264.57,264.56Z"
           id="path47" />
        <path
           class="cls-9"
           d="M1273.42,892.48c37.93,21.95,81.81,34.75,128.62,35.38h7.36s786.7.02,786.7.02c-130.99-1.65-239.04-98.52-258.15-224.57-41.3,18.44-87.06,28.69-135.22,28.69-48.24,0-94.08-10.28-135.44-28.79-11.97-5.34-23.56-11.39-34.74-18.08l-359.14,207.35Z"
           id="path48" />
        <path
           class="cls-14"
           d="M1470.72,406.8c2.4,118.32,66.71,221.46,161.84,278.33l37.73-21.78v-.03c0-123.69-84.88-227.55-199.57-256.52Z"
           id="path49" />
        <path
           class="cls-14"
           d="M1470.64,399.91c0,2.31.02,4.6.08,6.89,114.69,28.96,199.57,132.82,199.57,256.52v.03s394.76-227.92,394.76-227.92h.02s3.93-2.27,3.93-2.27l.11-.06.06-.03c20.33-11.55,42.35-20.46,65.58-26.31.06-2.27.08-4.56.08-6.85,0-1.58,0-3.17-.03-4.74-2.54-181.22-150.23-327.36-332.06-327.36-183.41,0-332.1,148.69-332.1,332.1Z"
           id="path50" />
        <path
           class="cls-9"
           d="M1632.56,685.13c11.17,6.69,22.77,12.73,34.74,18.08,41.36,18.51,87.2,28.79,135.44,28.79,48.16,0,93.92-10.25,135.22-28.69-1.97-13.04-3-26.39-3-39.98,0-97.02,52.22-181.84,130.09-227.89l-394.76,227.92-37.73,21.78Z"
           id="path51" />
      </g>
      <g
         class="cls-13"
         id="g55">
        <path
           class="cls-14"
           d="M1141.15,3231.68c0,97.92,53.19,183.42,132.27,229.16l359.14-207.35c-95.14-56.87-159.44-160-161.84-278.33-20.8-5.26-42.57-8.05-65-8.05-146.12,0-264.57,118.44-264.57,264.56Z"
           id="path52" />
        <path
           class="cls-14"
           d="M1470.72,2975.16c2.4,118.32,66.71,221.46,161.84,278.33l37.73-21.78v-.03c0-123.69-84.88-227.55-199.57-256.52Z"
           id="path53" />
        <path
           class="cls-14"
           d="M1470.64,2968.27c0,2.31.02,4.6.08,6.89,114.69,28.96,199.57,132.82,199.57,256.52v.03s394.76-227.92,394.76-227.92h.02s3.93-2.27,3.93-2.27l.11-.06.06-.03c20.33-11.55,42.35-20.46,65.58-26.31.06-2.27.08-4.56.08-6.85,0-1.58,0-3.17-.03-4.74-2.54-181.22-150.23-327.36-332.06-327.36-183.41,0-332.1,148.69-332.1,332.1Z"
           id="path54" />
        <path
           class="cls-9"
           d="M1632.56,3253.49c11.17,6.69,22.77,12.73,34.74,18.08,41.36,18.51,87.2,28.79,135.44,28.79s93.92-10.25,135.22-28.69c-1.97-13.04-3-26.39-3-39.98,0-97.02,52.22-181.84,130.09-227.89l-394.76,227.92-37.73,21.78Z"
           id="path55" />
      </g>
    </g>
  </g>
  <g
     class="cls-10"
     clip-path="url(#clippath-1)"
     id="g63">
    <g
       id="g62">
      <g
         class="cls-17"
         id="g58">
        <path
           class="cls-4"
           d="M-1911.07,1165.25h953.44c169.93,0,307.68,137.76,307.68,307.68v397.26c0,180.62,148.63,329.25,329.25,329.25,180.62,0,329.25-148.63,329.25-329.25,0-180.62-148.63-329.25-329.25-329.25-142.1,0-257.3-115.2-257.3-257.3v-320.11"
           id="path57" />
      </g>
      <g
         class="cls-16"
         id="g59">
        <path
           class="cls-11"
           d="M-1.21,2970.44c5.39,0,9.76-4.37,9.76-9.76s-4.37-9.76-9.76-9.76-9.76,4.37-9.76,9.76,4.37,9.76,9.76,9.76Z"
           id="path58" />
      </g>
      <g
         class="cls-13"
         id="g60">
        <path
           class="cls-9"
           d="M-790.62,2322.93c32.89,19.03,70.95,30.14,111.55,30.68h6.38s682.26.01,682.26.01c-113.6-1.43-207.31-85.44-223.87-194.76-35.81,15.99-75.5,24.88-117.26,24.88-41.84,0-81.59-8.92-117.46-24.97-10.38-4.63-20.43-9.88-30.12-15.68l-311.46,179.82Z"
           id="path59" />
      </g>
      <g
         class="cls-13"
         id="g61">
        <path
           class="cls-9"
           d="M-874.37,892.48c37.93,21.95,81.81,34.75,128.62,35.38h7.36s786.7.02,786.7.02c-130.99-1.65-239.04-98.52-258.15-224.57-41.3,18.44-87.06,28.69-135.22,28.69-48.24,0-94.08-10.28-135.44-28.79-11.97-5.34-23.56-11.39-34.74-18.08l-359.14,207.35Z"
           id="path60" />
      </g>
    </g>
  </g>
</svg>
