<?xml version="1.0" encoding="UTF-8" standalone="no"?>
<svg
   id="Layer_1"
   viewBox="0 0 128 128"
   width="128"
   height="128"
   xmlns="http://www.w3.org/2000/svg"
   >
  <defs
     id="defs4">
    <style
       id="style2">
      .cls-1 {
        fill: #fff;
      }

      .cls-2 {
        fill: #00a2c6;
      }

      .cls-3 {
        fill: #94d1e3;
      }
    </style>
  </defs>
  <g
     id="g837"
     transform="scale(0.51690018,0.51687934)">
    <path
       class="cls-2"
       d="m 83.8,247.64 h 152.1 c 6.48,0 11.73,-5.25 11.73,-11.73 V 11.73 C 247.64,5.25 242.38,0 235.9,0 H 11.73 C 5.25,0 0,5.25 0,11.73 v 179.85 c 0,5.7 2.74,11.05 7.37,14.37 l 66.1,38.35 c 2.51,1.44 6.63,3.33 10.34,3.33 z"
       id="path6" />
    <g
       id="g12"
       transform="translate(-79.06,-78.51)">
      <path
         class="cls-1"
         d="m 280.27,211.19 c 0,11.45 -6.23,21.45 -15.47,26.81 l -39.45,-22.78 -7,-4.03 v 0 c 0,0 -31.05,-17.94 -31.05,-17.94 l -0.14,-0.07 -9.02,-5.21 c -0.14,-0.08 -0.28,-0.15 -0.41,-0.23 -7.63,-4.26 -10.85,-5.67 -12.66,-6.28 v 0 c -0.06,-0.02 -0.12,-0.03 -0.17,-0.05 0,-0.35 0.03,-0.7 0.05,-1.06 1.33,-20.25 18.19,-36.26 38.77,-36.26 20.58,0 37.78,16.35 38.81,36.89 2.18,-0.49 4.45,-0.75 6.78,-0.75 17.1,0 30.96,13.85 30.96,30.96 z"
         id="path8" />
      <path
         class="cls-3"
         d="m 264.8,238 c -4.34,2.51 -9.35,4 -14.7,4.14 h -93.67 c -17.09,0 -30.96,-13.85 -30.96,-30.95 0,-17.1 13.86,-30.96 30.96,-30.96 2.93,0 5.78,0.41 8.46,1.18 0.05,0.02 0.11,0.03 0.17,0.05 v 0 c 1.81,0.61 5.03,2.01 12.66,6.28 0.14,0.08 0.28,0.15 0.41,0.23 l 9.02,5.21 0.14,0.07 31.05,17.93 v 0 c 0,0 7,4.04 7,4.04 L 264.79,238 Z"
         id="path10" />
    </g>
  </g>
</svg>
